<?xml version="1.0" encoding="UTF-8" standalone="no"?>
<svg
   height="19"
   viewBox="0 -960 800.99998 760"
   width="20.025"
   version="1.1"
   id="svg1"
   sodipodi:docname="star.svg"
   inkscape:version="1.3.2 (091e20ef0f, 2023-11-25, custom)"
   xmlns:inkscape="http://www.inkscape.org/namespaces/inkscape"
   xmlns:sodipodi="http://sodipodi.sourceforge.net/DTD/sodipodi-0.dtd"
   xmlns="http://www.w3.org/2000/svg"
   xmlns:svg="http://www.w3.org/2000/svg">
  <defs
     id="defs1" />
  <sodipodi:namedview
     id="namedview1"
     pagecolor="#ffffff"
     bordercolor="#000000"
     borderopacity="0.25"
     inkscape:showpageshadow="2"
     inkscape:pageopacity="0.0"
     inkscape:pagecheckerboard="0"
     inkscape:deskcolor="#d1d1d1"
     inkscape:zoom="33.541667"
     inkscape:cx="9.9875776"
     inkscape:cy="10.002484"
     inkscape:window-width="1920"
     inkscape:window-height="1011"
     inkscape:window-x="0"
     inkscape:window-y="0"
     inkscape:window-maximized="1"
     inkscape:current-layer="svg1" />
  <path
     d="m 400,-400 q 48,0 85.5,-28.5 Q 523,-457 540,-502 H 260 q 17,45 54.5,73.5 Q 352,-400 400,-400 Z M 300,-560 q 25,0 42.5,-17.5 Q 360,-595 360,-620 360,-645 342.5,-662.5 325,-680 300,-680 q -25,0 -42.5,17.5 -17.5,17.5 -17.5,42.5 0,25 17.5,42.5 17.5,17.5 42.5,17.5 z m 200,0 q 25,0 42.5,-17.5 Q 560,-595 560,-620 560,-645 542.5,-662.5 525,-680 500,-680 q -25,0 -42.5,17.5 -17.5,17.5 -17.5,42.5 0,25 17.5,42.5 Q 475,-560 500,-560 Z M 225,-784 337,-929 q 12,-16 28.5,-23.5 16.5,-7.5 34.5,-7.5 18,0 34.5,7.5 16.5,7.5 28.5,23.5 l 112,145 170,57 q 26,8 41,29.5 15,21.5 15,47.5 0,12 -3.5,24 -3.5,12 -11.5,23 l -110,156 4,164 q 1,35 -23,59 -24,24 -56,24 -2,0 -22,-3 l -179,-50 -179,50 q -5,2 -11,2.5 -6,0.5 -11,0.5 -32,0 -56,-24 -24,-24 -23,-59 L 124,-448 15,-603 Q 7,-614 3.5,-626 0,-638 0,-650 0,-675 14.5,-696.5 29,-718 55,-727 Z"
     id="path1"
     style="fill:#ffffff;fill-opacity:1" />
</svg>
