<?xml version="1.0" encoding="UTF-8" standalone="no"?>
<svg
   height="22"
   viewBox="0 -960 880 880"
   width="22"
   version="1.1"
   id="svg1"
   sodipodi:docname="favicon.svg"
   inkscape:version="1.3.2 (091e20ef0f, 2023-11-25, custom)"
   xmlns:inkscape="http://www.inkscape.org/namespaces/inkscape"
   xmlns:sodipodi="http://sodipodi.sourceforge.net/DTD/sodipodi-0.dtd"
   xmlns="http://www.w3.org/2000/svg"
   xmlns:svg="http://www.w3.org/2000/svg">
  <defs
     id="defs1" />
  <sodipodi:namedview
     id="namedview1"
     pagecolor="#ffffff"
     bordercolor="#000000"
     borderopacity="0.25"
     inkscape:showpageshadow="2"
     inkscape:pageopacity="0.0"
     inkscape:pagecheckerboard="0"
     inkscape:deskcolor="#d1d1d1"
     inkscape:zoom="31.934025"
     inkscape:cx="5.2295318"
     inkscape:cy="10.725237"
     inkscape:window-width="1920"
     inkscape:window-height="1011"
     inkscape:window-x="0"
     inkscape:window-y="0"
     inkscape:window-maximized="1"
     inkscape:current-layer="svg1" />
  <circle
     style="fill:#ffffff;fill-opacity:1;stroke-width:21.9999"
     id="path2"
     cx="440"
     cy="-520"
     r="440" />
  <path
     d="m 440,-120 q -83,0 -156,-31.5 Q 211,-183 157,-237 103,-291 71.5,-364 40,-437 40,-520 q 0,-83 31.5,-156 31.5,-73 85.5,-127 54,-54 127,-85.5 73,-31.5 156,-31.5 83,0 156,31.5 73,31.5 127,85.5 54,54 85.5,127 31.5,73 31.5,156 0,83 -31.5,156 -31.5,73 -85.5,127 -54,54 -127,85.5 -73,31.5 -156,31.5 z m -40,-82 v -78 q -33,0 -56.5,-23.5 Q 320,-327 320,-360 v -40 L 128,-592 q -3,18 -5.5,36 -2.5,18 -2.5,36 0,121 79.5,212 79.5,91 200.5,106 z m 276,-102 q 20,-22 36,-47.5 16,-25.5 26.5,-53 10.5,-27.5 16,-56.5 5.5,-29 5.5,-59 0,-98 -54.5,-179 Q 651,-780 560,-816 v 16 q 0,33 -23.5,56.5 Q 513,-720 480,-720 h -80 v 80 q 0,17 -11.5,28.5 Q 377,-600 360,-600 h -80 v 80 h 240 q 17,0 28.5,11.5 11.5,11.5 11.5,28.5 v 120 h 40 q 26,0 47,15.5 21,15.5 29,40.5 z"
     id="path1"
     style="fill:#000000;fill-opacity:1;stroke:none" />
</svg>
